0
SECTION
2
ENTITIES
0
LINE
8
WALLS
10
0
20
0
30
0
11
3
21
0
31
0
0
LINE
8
WALLS
10
3.01
20
0
30
0
11
8
21
0
31
0
0
LINE
8
WALLS
10
8
20
0
30
0
11
8
21
4.99
31
0
0
LINE
8
WALLS
10
8
20
5
30
0
11
0.02
21
5
31
0
0
LINE
8
WALLS
10
0
20
5
30
0
11
0
21
0.01
31
0
0
POLYLINE
8
WALLS
66
1
10
0
20
0
30
0
70
0
0
VERTEX
8
WALLS
10
5
20
0
30
0
0
VERTEX
8
WALLS
10
5
20
2
30
0
0
SEQEND
8
WALLS
0
LINE
8
WALLS
10
5
20
2.9
30
0
11
5
21
5
31
0
0
LINE
8
DOORS
10
5
20
2
30
0
11
5.9
21
2
31
0
0
ARC
8
DOORS
10
5
20
2
30
0
40
0.9
50
0
51
90
0
LINE
8
DOORS
10
6.5
20
5
30
0
11
6.5
21
4.1
31
0
0
ARC
8
DOORS
10
6.5
20
5
30
0
40
0.9
50
270
51
360
0
LINE
8
WINDOWS
10
1
20
0.05
30
0
11
2.2
21
0.05
31
0
0
LINE
8
WINDOWS
10
1
20
-0.05
30
0
11
2.2
21
-0.05
31
0
0
ENDSEC
0
EOF
